<svg xmlns="http://www.w3.org/2000/svg" viewBox="0 0 793.77 160.25"><defs><style>.cls-1{fill:none;stroke:#000;stroke-miterlimit:10;stroke-width:5px;}</style></defs><g id="Calque_2" data-name="Calque 2"><g id="Calque_1-2" data-name="Calque 1"><path d="M534.42,53.35c0-12.12.13-23.34-.09-34.56-.06-3.44.83-4.62,4.39-4.42,5.31.31,10.64.2,16,0,2.67-.08,3.78.51,3.77,3.5q-.15,53.13,0,106.26c0,2.73-.65,3.83-3.58,3.69a108.86,108.86,0,0,0-14.45,0c-4.32.37-5.69-1.19-5-5.21a14.5,14.5,0,0,0-.13-3c-21,13.63-43.75,11.56-57.47-5-13.36-16.13-12.4-43.37,1.89-58.56C491.83,43.24,517.89,38.71,534.42,53.35Zm.16,33.18c0-13.46-8.2-22.46-20.54-22.52s-21.36,9.31-21.35,22.53,8.89,22.59,21.36,22.52S534.58,100,534.58,86.53Z"/><path class="cls-1" d="M724.35,53.42c20.39-13.6,42.91-11.82,56.85,4.23,13.71,15.79,13.33,42.9-.61,58.58-11.47,12.91-37.45,18.75-55.41,3.58v19.62c0,5-.14,9.94.05,14.9.1,2.65-.83,3.42-3.41,3.34a147.63,147.63,0,0,0-15.46,0c-4.09.29-5.3-.85-5.26-5.09.23-24,.11-48,.11-72,0-10.43.13-20.86-.07-31.29-.07-3.27.92-4.29,4.17-4.11a116.1,116.1,0,0,0,14,0c3.75-.24,5.65.69,5,4.77A17.16,17.16,0,0,0,724.35,53.42ZM725,86.31c-.08,13.6,8.3,22.75,20.87,22.75,12.22,0,20.89-9.21,21-22.31C767,73.44,758.25,64,745.84,64S725.11,73,725,86.31Z"/><path class="cls-1" d="M581.36,56.21c0-10.27.14-20.54-.08-30.8-.07-3.36,1.06-4.2,4.23-4.06a157.33,157.33,0,0,0,16,0c3.68-.21,4.83.81,4.79,4.63-.22,17.22-.1,34.44-.09,51.66,0,5.81.18,11.59,2.17,17.15,3.26,9.14,10.53,13.94,21.27,14,11.27.06,18.37-4.47,21.84-13.83,2.18-5.88,2.24-12,2.28-18.13q.15-25.33,0-50.67c0-3.45.55-5.1,4.57-4.82,5.63.38,11.31.1,17,.09,1.53,0,3-.14,3,2.16-.38,22.67,1.67,45.45-.89,68-2.62,23-17.68,36.16-40.9,38.05-9.68.79-19.29.21-28.48-3.4-16.49-6.49-26.33-21.64-26.59-41.19C581.25,75.42,581.36,65.82,581.36,56.21Z"/><path d="M303.7,78.09c9.71-9.18,18.86-17.31,27.35-26.06,4.84-5,9.73-7.69,16.9-6.89,6,.66,12.14.13,19.42.13-9.9,10.08-18.89,19.29-27.94,28.44-6.45,6.52-6.47,6.47-.92,13.52q14.17,18,28.29,36c1,1.24,1.86,2.57,3.29,4.56-9.75,0-18.66,0-27.58,0-2.07,0-2.76-1.6-3.76-2.84-7.1-8.77-14.27-17.49-21.18-26.4-2-2.57-2.84-2-5.24-.3-8.18,5.67-9.44,13.45-8.74,22.51.55,7,.11,7-7,7-4.5,0-9-.12-13.48,0-2.55.09-3.45-.64-3.44-3.32q.12-53.42,0-106.84c0-2.74,1-3.34,3.49-3.27,5.48.14,11,.24,16.47,0,3.32-.16,4.16.95,4.13,4.16-.15,18.06-.07,36.12-.07,54.17Z"/><path d="M197.65,38.29c0-5.29,0-10.59,0-15.88a13.35,13.35,0,0,1,.32-3C200.66,7.63,213.92-.72,228.74.05s26.14,9.88,27.13,22.73c.62,8.08.41,16.22.34,24.33a9,9,0,0,0,3.06,7.36c9.31,8.8,9.08,10-2,16a19.77,19.77,0,0,0-2.18,1.18c-4.21,3.07-7.23,3.51-11.07-1.53-5.06-6.66-15.13-7.86-23.33-4.33-8,3.46-13,11.85-12.57,21.36.44,10.53,5.71,18,14.69,20.9,9.15,2.93,17.42.32,23.76-7.89,1.45-1.89,2.38-2.14,4.35-1,4.31,2.49,8.68,4.9,13.16,7.07,2.65,1.29,2.71,2.65,1.3,5-6.27,10.25-15.78,15.59-27.34,17.07-17.63,2.26-33.65-1.31-45.42-15.71-12.29-15-12-38.11.66-52.79,3.1-3.59,4.48-7,4.12-11.54-.25-3.29-.05-6.62-.05-9.94Zm11.69-3.71c0,3.3,0,6.61,0,9.91-.06,2.52.87,3.15,3.31,2.34a54.59,54.59,0,0,1,28.46-1.53c2.48.49,3.26-.26,3.2-2.69-.11-5,0-9.9,0-14.86-.08-10-6.38-15.74-17.4-15.77s-17.41,5.69-17.53,15.66C209.3,30,209.32,32.27,209.34,34.58Z"/><path d="M129.4,128.93c-22.34.14-40.37-13-44.44-32.45-6.08-29,14.24-52.81,44.75-52.32,21.56.34,38.47,12.49,43.11,31C180.09,104.06,160.17,128.74,129.4,128.93Zm20.46-42.19C150,73.51,141.53,64.12,129.4,64c-12.38-.12-21.27,9.31-21.24,22.55,0,13.07,8.69,22.43,20.82,22.5S149.74,100,149.86,86.74Z"/><path d="M426.55,93c-8.82,0-17.64.18-26.44-.08-4.26-.13-4.25,1.36-2.77,4.5,3.85,8.2,13.89,13.26,24.26,12.16,5.91-.62,11.49-2.11,16-6.17,2.08-1.88,3.25-1.25,4.8.58a79.15,79.15,0,0,0,7.78,8.37c3,2.72,2,4.43-.6,6.57a40.62,40.62,0,0,1-22.14,9.38c-17.43,1.89-33.88-.52-46-14.57-11.58-13.45-13.06-29.18-6.13-45.12s20.3-23.33,37.12-24.23C435.12,43.18,451.7,54.51,457,73.9c1.38,5,1.51,10.1,1.52,15.24,0,3-1,4-4.07,3.92C445.17,92.88,435.86,93,426.55,93ZM395.94,79.07c12.47,0,24.9,0,37.34,0,2.87,0,2.23-1.46,1.73-3.2-2.48-8.57-11.07-14.18-20.83-13.54S397.3,69.3,395.94,79.07Z"/><path d="M.07,74.63C.07,58.24.16,41.86,0,25.47c0-3.25.89-4.28,4.16-4.13a158.54,158.54,0,0,0,16.46,0c3.69-.21,4.34,1.24,4.33,4.56-.13,25.32.06,50.65-.19,76-.05,4.79,1.17,6.12,6,6,14.62-.33,29.26,0,43.89-.19,3.32,0,4.39,1,4.2,4.23-.24,4.12-.16,8.28,0,12.41.08,2.44-.53,3.54-3.29,3.53q-36.18-.14-72.34,0c-3.42,0-3.17-1.82-3.16-4.07Q.11,99.22.07,74.63Z"/><path d="M229.9,100.46c-6.47-.06-6.42.76-5.49-6,.59-4.32,1.91-8.62.74-13.21-.74-2.89,1.13-5.12,4.46-5.22,3.5-.12,5.69,1.86,5,5.16-.89,4.41.21,8.52.8,12.7C236.37,100.47,236.49,100.46,229.9,100.46Z"/></g></g></svg>