<svg xmlns="http://www.w3.org/2000/svg" viewBox="0 0 403.68 629.11"><g id="Calque_2" data-name="Calque 2"><g id="Calque_1-2" data-name="Calque 1"><path d="M68.79,186.91c0-25.85-.08-51.7.07-77.55a67.3,67.3,0,0,1,1.56-14.44C83.48,37.23,148.2-3.53,220.51.24c73,3.81,127.61,48.23,132.43,111,3,39.4,2,79.15,1.65,118.74-.13,14.75,3.79,25.33,15,35.9,45.45,43,44.3,48.94-9.9,78.17-3.56,1.92-7.45,3.4-10.68,5.76-20.51,15-35.28,17.14-54-7.46-24.73-32.53-73.84-38.4-113.89-21.14-39.18,16.88-63.26,57.81-61.34,104.26,2.12,51.37,27.85,88,71.69,102,44.67,14.28,85,1.55,116-38.51,7.11-9.22,11.61-10.45,21.24-4.88,21,12.16,42.38,23.89,64.23,34.51,12.92,6.28,13.25,12.9,6.35,24.18-30.61,50-77,76.09-133.46,83.33-86,11-164.2-6.41-221.67-76.66-60-73.34-58.57-186,3.23-257.67,15.11-17.51,21.85-34.19,20.13-56.33-1.26-16.07,1.35-32.33,1.35-48.5Zm57-18.13c0,16.12.28,32.24-.09,48.36-.28,12.32,4.27,15.41,16.17,11.44,45.54-15.18,92.05-16.88,138.91-7.48,12.09,2.42,15.9-1.27,15.64-13.11-.54-24.17,0-48.36-.17-72.54-.37-49-31.13-76.84-84.94-77-53.65-.14-84.94,27.79-85.55,76.46C125.64,146.21,125.76,157.49,125.81,168.78Z"/><path d="M226.17,490.33c-31.56-.26-31.3,3.71-26.77-29.52,2.87-21.09,9.33-42.05,3.59-64.49-3.6-14.08,5.53-25,21.78-25.48,17.1-.56,27.77,9.07,24.51,25.22-4.35,21.52,1,41.54,3.91,62C257.78,490.4,258.34,490.32,226.17,490.33Z"/></g></g></svg>