<svg xmlns="http://www.w3.org/2000/svg" viewBox="0 0 752.06 629.11"><defs><style>.cls-1{stroke:#fff;stroke-miterlimit:10;stroke-width:5px;}.cls-2{fill:#fff;}</style></defs><g id="Calque_2" data-name="Calque 2"><g id="Calque_1-2" data-name="Calque 1"><path class="cls-1" d="M645.29,397.42c31.77-21.2,66.86-18.42,88.59,6.59,21.36,24.59,20.76,66.85-1,91.28-17.88,20.11-58.35,29.22-86.35,5.58,0,10.82,0,20.7,0,30.57,0,7.74-.21,15.49.09,23.22.15,4.13-1.3,5.34-5.33,5.2a233.21,233.21,0,0,0-24.09.07c-6.37.45-8.25-1.33-8.19-7.93.35-37.4.17-74.81.17-112.22,0-16.25.2-32.5-.12-48.75-.1-5.11,1.44-6.7,6.51-6.42a181.58,181.58,0,0,0,21.76,0c5.83-.38,8.8,1.06,7.7,7.43C644.79,393.68,645.19,395.43,645.29,397.42Zm1,51.24c-.14,21.2,12.93,35.45,32.52,35.45,19,0,32.55-14.35,32.71-34.75.17-20.76-13.46-35.48-32.79-35.45S646.46,427.88,646.33,448.66Z"/><path class="cls-1" d="M422.45,401.76c0-16,.22-32-.12-48-.11-5.24,1.65-6.55,6.59-6.34a242.91,242.91,0,0,0,24.88,0c5.73-.33,7.53,1.26,7.45,7.21-.33,26.83-.15,53.67-.14,80.51,0,9,.29,18.05,3.39,26.72,5.08,14.25,16.41,21.72,33.14,21.81,17.57.09,28.64-7,34-21.55,3.39-9.15,3.49-18.72,3.55-28.24.15-26.32.18-52.64-.05-79,0-5.39.86-8,7.13-7.53,8.77.6,17.62.16,26.43.16,2.38,0,4.74-.22,4.68,3.36-.59,35.32,2.61,70.83-1.39,105.94-4.07,35.85-27.54,56.36-63.73,59.3-15.07,1.23-30.05.33-44.37-5.3-25.71-10.11-41-33.72-41.44-64.18C422.29,431.7,422.45,416.73,422.45,401.76Z"/><path class="cls-2" d="M68.79,186.91c0-25.85-.08-51.7.07-77.55a67.3,67.3,0,0,1,1.56-14.44C83.48,37.23,148.2-3.53,220.51.24c73,3.81,127.61,48.23,132.43,111,3,39.4,2,79.15,1.65,118.74-.13,14.75,3.79,25.33,15,35.9,45.45,43,44.3,48.94-9.9,78.17-3.56,1.92-7.45,3.4-10.68,5.76-20.51,15-35.28,17.14-54-7.46-24.73-32.53-73.84-38.4-113.89-21.14-39.18,16.88-63.26,57.81-61.34,104.26,2.12,51.37,27.85,88,71.69,102,44.67,14.28,85,1.55,116-38.51,7.11-9.22,11.61-10.45,21.24-4.88,21,12.16,42.38,23.89,64.23,34.51,12.92,6.28,13.25,12.9,6.35,24.18-30.61,50-77,76.09-133.46,83.33-86,11-164.2-6.41-221.67-76.66-60-73.34-58.57-186,3.23-257.67,15.11-17.51,21.85-34.19,20.13-56.33-1.26-16.07,1.35-32.33,1.35-48.5Zm57-18.13c0,16.12.28,32.24-.09,48.36-.28,12.32,4.27,15.41,16.17,11.44,45.54-15.18,92.05-16.88,138.91-7.48,12.09,2.42,15.9-1.27,15.64-13.11-.54-24.17,0-48.36-.17-72.54-.37-49-31.13-76.84-84.94-77-53.65-.14-84.94,27.79-85.55,76.46C125.64,146.21,125.76,157.49,125.81,168.78Z"/><path class="cls-2" d="M226.17,490.33c-31.56-.26-31.3,3.71-26.77-29.52,2.87-21.09,9.33-42.05,3.59-64.49-3.6-14.08,5.53-25,21.78-25.48,17.1-.56,27.77,9.07,24.51,25.22-4.35,21.52,1,41.54,3.91,62C257.78,490.4,258.34,490.32,226.17,490.33Z"/></g></g></svg>